<mxfile host="app.diagrams.net" modified="2020-09-25T06:57:42.374Z" agent="5.0 (Windows NT 10.0; Win64; x64) AppleWebKit/537.36 (KHTML, like Gecko) Chrome/85.0.4183.102 Safari/537.36" etag="u-Ux-r7_ql27jH71Pb4F" version="13.7.5" type="github">
  <diagram id="1DcZlpppCnB5ftDYnrpj" name="Page-1">
    <mxGraphModel dx="1038" dy="531" grid="1" gridSize="10" guides="1" tooltips="1" connect="1" arrows="1" fold="1" page="1" pageScale="1" pageWidth="850" pageHeight="1100" math="0" shadow="0">
      <root>
        <mxCell id="0" />
        <mxCell id="1" parent="0" />
        <mxCell id="PFrNyJQ9u5XcXT-LjefT-15" value="" style="rounded=0;whiteSpace=wrap;html=1;" vertex="1" parent="1">
          <mxGeometry x="40" y="105" width="780" height="405" as="geometry" />
        </mxCell>
        <mxCell id="PFrNyJQ9u5XcXT-LjefT-9" value="" style="edgeStyle=orthogonalEdgeStyle;rounded=0;orthogonalLoop=1;jettySize=auto;html=1;startArrow=none;startFill=0;endArrow=open;endFill=0;" edge="1" parent="1" source="PFrNyJQ9u5XcXT-LjefT-7" target="PFrNyJQ9u5XcXT-LjefT-8">
          <mxGeometry relative="1" as="geometry" />
        </mxCell>
        <mxCell id="PFrNyJQ9u5XcXT-LjefT-7" value="" style="aspect=fixed;pointerEvents=1;shadow=0;dashed=0;html=1;strokeColor=none;labelPosition=center;verticalLabelPosition=bottom;verticalAlign=top;align=center;fillColor=#00188D;shape=mxgraph.azure.user" vertex="1" parent="1">
          <mxGeometry x="70" y="30" width="47" height="50" as="geometry" />
        </mxCell>
        <mxCell id="PFrNyJQ9u5XcXT-LjefT-8" value="External PIS" style="shape=process;whiteSpace=wrap;html=1;backgroundOutline=1;" vertex="1" parent="1">
          <mxGeometry x="180" y="25" width="120" height="60" as="geometry" />
        </mxCell>
        <mxCell id="PFrNyJQ9u5XcXT-LjefT-10" value="" style="edgeStyle=orthogonalEdgeStyle;rounded=0;orthogonalLoop=1;jettySize=auto;html=1;" edge="1" parent="1" source="PFrNyJQ9u5XcXT-LjefT-11" target="PFrNyJQ9u5XcXT-LjefT-12">
          <mxGeometry relative="1" as="geometry" />
        </mxCell>
        <mxCell id="PFrNyJQ9u5XcXT-LjefT-11" value="IDF Approval" style="shape=module;align=left;spacingLeft=20;align=center;verticalAlign=top;" vertex="1" parent="1">
          <mxGeometry x="60" y="140" width="110" height="50" as="geometry" />
        </mxCell>
        <mxCell id="PFrNyJQ9u5XcXT-LjefT-12" value="File Creation " style="shape=module;align=left;spacingLeft=20;align=center;verticalAlign=top;" vertex="1" parent="1">
          <mxGeometry x="60" y="230" width="110" height="50" as="geometry" />
        </mxCell>
        <mxCell id="PFrNyJQ9u5XcXT-LjefT-13" value="" style="endArrow=none;html=1;endFill=0;startArrow=classic;startFill=1;entryX=0.5;entryY=1;entryDx=0;entryDy=0;" edge="1" parent="1" target="PFrNyJQ9u5XcXT-LjefT-8">
          <mxGeometry width="50" height="50" relative="1" as="geometry">
            <mxPoint x="117" y="145" as="sourcePoint" />
            <mxPoint x="117" y="85" as="targetPoint" />
          </mxGeometry>
        </mxCell>
        <mxCell id="PFrNyJQ9u5XcXT-LjefT-14" value="REST API&amp;nbsp;" style="text;html=1;align=center;verticalAlign=middle;resizable=0;points=[];autosize=1;" vertex="1" parent="1">
          <mxGeometry x="160" y="110" width="70" height="20" as="geometry" />
        </mxCell>
        <mxCell id="PFrNyJQ9u5XcXT-LjefT-16" value="IPIMS&amp;nbsp;" style="text;html=1;align=center;verticalAlign=middle;resizable=0;points=[];autosize=1;" vertex="1" parent="1">
          <mxGeometry x="685" y="90" width="50" height="20" as="geometry" />
        </mxCell>
        <mxCell id="PFrNyJQ9u5XcXT-LjefT-17" value="File Creation " style="shape=module;align=left;spacingLeft=20;align=center;verticalAlign=top;" vertex="1" parent="1">
          <mxGeometry x="40" y="320" width="90" height="40" as="geometry" />
        </mxCell>
        <mxCell id="PFrNyJQ9u5XcXT-LjefT-18" value="File Creation " style="shape=module;align=left;spacingLeft=20;align=center;verticalAlign=top;" vertex="1" parent="1">
          <mxGeometry x="140" y="320" width="100" height="40" as="geometry" />
        </mxCell>
      </root>
    </mxGraphModel>
  </diagram>
</mxfile>
